<svg width="50" height="32" viewBox="0 0 50 32" fill="none" xmlns="http://www.w3.org/2000/svg">
<path d="M35 19L42.5 32L50 19H35Z" fill="#FFFBFB"/>
<rect width="32" height="32" fill="#2A2F36"/>
<path fill-rule="evenodd" clip-rule="evenodd" d="M15 15H0.992786C0.444486 15 0 15.4439 0 16C0 16.5523 0.452362 17 0.992786 17H15V31.0072C15 31.5555 15.4439 32 16 32C16.5523 32 17 31.5476 17 31.0072V17H31.0072C31.5555 17 32 16.5561 32 16C32 15.4477 31.5476 15 31.0072 15H17V0.992786C17 0.444486 16.5561 0 16 0C15.4477 0 15 0.452362 15 0.992786V15Z" fill="#FDFBFF"/>
</svg>
