<svg width="30" height="24" viewBox="0 0 30 24" fill="none" xmlns="http://www.w3.org/2000/svg">
<path d="M3.75 11.875C3.75 12.2458 3.64003 12.6084 3.43401 12.9167C3.22798 13.225 2.93514 13.4654 2.59253 13.6073C2.24992 13.7492 1.87292 13.7863 1.50921 13.714C1.14549 13.6416 0.811399 13.463 0.549175 13.2008C0.286952 12.9386 0.108376 12.6045 0.0360284 12.2408C-0.0363188 11.8771 0.000812411 11.5001 0.142727 11.1575C0.284641 10.8149 0.524964 10.522 0.833307 10.316C1.14165 10.11 1.50416 10 1.875 10C2.37211 10.0006 2.8487 10.1983 3.20021 10.5498C3.55172 10.9013 3.74944 11.3779 3.75 11.875ZM1.875 20C1.50416 20 1.14165 20.11 0.833307 20.316C0.524964 20.522 0.284641 20.8149 0.142727 21.1575C0.000812411 21.5001 -0.0363188 21.8771 0.0360284 22.2408C0.108376 22.6045 0.286952 22.9386 0.549175 23.2008C0.811399 23.463 1.14549 23.6416 1.50921 23.714C1.87292 23.7863 2.24992 23.7492 2.59253 23.6073C2.93514 23.4654 3.22798 23.225 3.43401 22.9167C3.64003 22.6084 3.75 22.2458 3.75 21.875C3.74944 21.3779 3.55172 20.9013 3.20021 20.5498C2.8487 20.1983 2.37211 20.0006 1.875 20V20ZM1.875 0C1.50416 0 1.14165 0.109967 0.833307 0.315995C0.524964 0.522022 0.284641 0.814857 0.142727 1.15747C0.000812411 1.50008 -0.0363188 1.87708 0.0360284 2.24079C0.108376 2.60451 0.286952 2.9386 0.549175 3.20083C0.811399 3.46305 1.14549 3.64163 1.50921 3.71397C1.87292 3.78632 2.24992 3.74919 2.59253 3.60727C2.93514 3.46536 3.22798 3.22504 3.43401 2.91669C3.64003 2.60835 3.75 2.24584 3.75 1.875C3.74944 1.37789 3.55172 0.901299 3.20021 0.549788C2.8487 0.198278 2.37211 0.000555418 1.875 0ZM8.75 3.125H28.75C29.0815 3.125 29.3995 2.9933 29.6339 2.75888C29.8683 2.52446 30 2.20652 30 1.875C30 1.54348 29.8683 1.22554 29.6339 0.991117C29.3995 0.756696 29.0815 0.625 28.75 0.625H8.75C8.41848 0.625 8.10054 0.756696 7.86612 0.991117C7.6317 1.22554 7.5 1.54348 7.5 1.875C7.5 2.20652 7.6317 2.52446 7.86612 2.75888C8.10054 2.9933 8.41848 3.125 8.75 3.125V3.125ZM28.75 10.625H8.75091C8.41939 10.625 8.10145 10.7567 7.86703 10.9911C7.63261 11.2255 7.50091 11.5435 7.50091 11.875C7.50091 12.2065 7.63261 12.5245 7.86703 12.7589C8.10145 12.9933 8.41939 13.125 8.75091 13.125H28.75C29.0815 13.125 29.3995 12.9933 29.6339 12.7589C29.8683 12.5245 30 12.2065 30 11.875C30 11.5435 29.8683 11.2255 29.6339 10.9911C29.3995 10.7567 29.0815 10.625 28.75 10.625ZM28.75 20.625H8.75091C8.41939 20.625 8.10145 20.7567 7.86703 20.9911C7.63261 21.2255 7.50091 21.5435 7.50091 21.875C7.50091 22.2065 7.63261 22.5245 7.86703 22.7589C8.10145 22.9933 8.41939 23.125 8.75091 23.125H28.75C29.0815 23.125 29.3995 22.9933 29.6339 22.7589C29.8683 22.5245 30 22.2065 30 21.875C30 21.5435 29.8683 21.2255 29.6339 20.9911C29.3995 20.7567 29.0815 20.625 28.75 20.625Z" fill="#FFFAFA"/>
</svg>
